<svg width="96" height="82" viewBox="0 0 96 82" fill="none" xmlns="http://www.w3.org/2000/svg">
<g clip-path="url(#clip0_4_36)">
<path d="M2.63008 79.1872H49.2522V72.853H51.8331V81.9478C51.6755 81.9552 51.5031 81.9726 51.3307 81.9726C35.1784 81.9726 19.0237 81.9577 2.87141 82C1.09341 82.005 -0.00737838 80.6943 0.00247207 79.232C0.0369486 74.2457 0.00247207 69.2618 0.00247207 64.2755C9.45735e-06 43.8923 9.45723e-06 23.5092 0.00493468 3.12859C0.00493468 2.63866 0.0147851 2.13132 0.137916 1.66378C0.418653 0.594383 1.2387 0 2.32472 0C16.6103 0 30.8935 0 45.1791 0C47.1763 0 49.171 0 51.1682 0C51.3824 0 51.5967 0 51.8454 0V9.65935H49.2769V2.77793C48.9173 2.77793 48.6317 2.77793 48.346 2.77793C33.3536 2.77793 18.3612 2.77793 3.37133 2.77793C2.63993 2.77793 2.635 2.77793 2.635 3.53148C2.635 16.4164 2.63254 29.3013 2.63254 42.1863C2.63254 54.2828 2.63254 66.3819 2.63254 78.4785C2.63254 78.6948 2.63254 78.9112 2.63254 79.1848L2.63008 79.1872Z" fill="#131313"/>
<path d="M95.7636 43.8973V49.2841C95.5493 49.2841 95.34 49.2841 95.1331 49.2841C89.4347 49.2841 83.7362 49.2766 78.0402 49.294C77.5058 49.294 76.9541 49.3835 76.4444 49.5427C74.7132 50.0774 74.0409 52.1466 75.1195 53.6238C75.7204 54.447 76.634 54.6634 77.5747 54.6683C80.914 54.6882 84.2533 54.6609 87.5926 54.6833C89.2697 54.6957 90.8975 54.9842 92.407 55.7725C94.483 56.8568 95.5813 58.6077 95.8842 60.9205C96.0886 62.4799 96.0394 64.0218 95.6158 65.5339C94.8426 68.2894 92.9291 69.7716 90.2227 70.2765C89.3559 70.4381 88.4595 70.4953 87.5754 70.4978C81.478 70.5152 75.383 70.5078 69.2412 70.5078V65.126C69.4284 65.126 69.6353 65.126 69.8446 65.126C75.452 65.126 81.0593 65.1359 86.6667 65.1136C87.3464 65.1111 88.0433 65.0166 88.7008 64.845C89.9149 64.5291 90.5724 63.6438 90.5379 62.5246C90.501 61.2911 89.7277 60.3361 88.521 60.08C88.1344 59.9979 87.733 59.9606 87.339 59.9581C83.746 59.9481 80.1506 60.0203 76.5601 59.9282C74.2871 59.8686 72.1742 59.2021 70.6105 57.3642C69.9086 56.5385 69.5712 55.5437 69.3742 54.4967C69.0171 52.5867 69.0442 50.6917 69.5737 48.8066C70.2657 46.3345 71.9797 44.9642 74.3339 44.3649C75.4249 44.0863 76.5774 43.9272 77.7028 43.9172C83.4924 43.8749 89.2795 43.8973 95.0691 43.8973C95.2834 43.8973 95.4976 43.8973 95.7685 43.8973H95.7636Z" fill="#131313"/>
<path d="M37.3923 57.118C37.3923 55.2304 37.3209 53.3378 37.412 51.4552C37.5081 49.4507 38.0424 47.5556 39.5274 46.0958C40.6774 44.9642 42.123 44.3847 43.6794 44.1336C44.6398 43.9794 45.6224 43.9147 46.5951 43.9072C49.7719 43.8799 52.9486 43.8724 56.1229 43.9072C57.667 43.9247 59.1667 44.2455 60.5852 44.902C62.7055 45.8819 63.8211 47.6352 64.2767 49.861C64.4441 50.6768 64.518 51.5248 64.5328 52.3604C64.5845 55.2925 64.6387 58.2247 64.5919 61.1568C64.5722 62.4227 64.4269 63.7159 64.119 64.9419C63.3655 67.9338 61.2526 69.5329 58.3738 70.1621C57.3567 70.3834 56.2953 70.4754 55.2536 70.4903C52.1335 70.5326 49.0085 70.56 45.8883 70.4928C43.7212 70.4456 41.6723 69.9059 39.951 68.461C38.6359 67.3543 37.9883 65.8571 37.6337 64.2332C37.444 63.3677 37.3997 62.4624 37.3775 61.5721C37.3381 60.0874 37.3677 58.6027 37.3677 57.118C37.3775 57.118 37.3874 57.118 37.3972 57.118H37.3923ZM50.8062 65.0141C52.3305 65.0141 53.8549 65.0265 55.3792 65.0116C57.039 64.9967 58.3294 64.0839 58.7062 62.6415C58.8392 62.1342 58.9279 61.5995 58.9328 61.0747C58.9525 58.3813 58.9623 55.688 58.9254 52.9946C58.9106 51.9252 58.7038 50.8807 57.7926 50.147C57.0046 49.5153 56.0614 49.3089 55.1034 49.2965C52.2 49.2617 49.2966 49.2567 46.3932 49.2915C44.2753 49.3164 42.9677 50.6345 42.9455 52.7608C42.916 55.6929 42.9357 58.6251 42.9455 61.5572C42.9529 63.6338 44.3369 65.0116 46.3981 65.0166C47.8683 65.019 49.3385 65.0166 50.8086 65.0166L50.8062 65.0141Z" fill="#131313"/>
<path d="M6.56287 17.8489V12.2334C6.69338 12.2234 6.79681 12.2085 6.90271 12.2085C12.7095 12.1985 18.5188 12.1936 24.3257 12.1836C26.1554 12.1811 27.8645 12.6014 29.4134 13.6211C31.2801 14.8496 32.2405 16.6577 32.5828 18.8138C32.7503 19.8733 32.7946 20.9601 32.8069 22.0369C32.8365 24.8969 32.8389 27.7569 32.8094 30.6145C32.7897 32.5294 32.5139 34.3996 31.4919 36.0708C30.0488 38.4335 27.9014 39.6919 25.2024 39.9132C23.4539 40.0574 21.6907 40.0226 19.9324 40.04C15.613 40.0773 11.2935 40.0997 6.97412 40.1271C6.86577 40.1271 6.75988 40.1271 6.59242 40.1271V34.2181C6.77465 34.2181 6.97166 34.2181 7.16621 34.2181C12.5569 34.2181 17.9475 34.2554 23.3382 34.1982C25.3994 34.1758 26.5346 33.1785 26.872 31.659C26.9705 31.2163 27.037 30.7587 27.0395 30.3061C27.0543 27.5207 27.0001 24.7328 27.0592 21.9474C27.1306 18.5925 25.4265 17.8688 22.9663 17.8564C17.721 17.8265 12.4756 17.8464 7.23023 17.8464C7.03076 17.8464 6.83375 17.8464 6.56287 17.8464V17.8489Z" fill="#131313"/>
<path d="M74.8117 34.2603H95.7538V40.0226H69.2265V12.2209H74.8092V34.2603H74.8117Z" fill="#131313"/>
<path d="M6.60471 70.4481C6.5924 70.2914 6.5727 70.182 6.57516 70.075C6.60964 67.4364 6.5333 64.7927 6.70568 62.164C6.96425 58.2346 9.61649 55.3647 13.404 54.8275C14.9899 54.6037 16.63 54.7355 18.243 54.733C22.9959 54.7255 27.7512 54.7305 32.5311 54.7305V60.0053C32.0213 60.0053 31.5731 60.0053 31.1225 60.0053C26.2588 60.0004 21.3952 59.9854 16.529 59.9979C15.6819 59.9979 14.8175 60.0203 13.9925 60.1894C12.5642 60.4828 11.69 61.6716 11.6851 63.1638C11.6752 65.3821 11.6802 67.6005 11.6777 69.8164C11.6777 70.0153 11.6777 70.2143 11.6777 70.4481H6.60225H6.60471Z" fill="#131313"/>
<path d="M64.353 34.2454V40.0923H37.7765V34.2454H64.353Z" fill="#131313"/>
<path d="M37.7518 23.0292H64.348V28.7816H37.7518V23.0292Z" fill="#131313"/>
<path d="M37.7642 12.2284H64.3456V17.8265H37.7642V12.2284Z" fill="#131313"/>
<path d="M6.55054 49.3512V43.9222H32.573V49.3512H6.55054Z" fill="#131313"/>
</g>
<defs>
<clipPath id="clip0_4_36">
<rect width="96" height="82" fill="white"/>
</clipPath>
</defs>
</svg>
